
<svg width="59" height="51" viewBox="0 0 59 51" fill="none" xmlns="http://www.w3.org/2000/svg">
<path d="M37.5027 17.1C37.5027 25.9901 30.2823 33.2 21.3716 33.2C12.4609 33.2 5.24045 25.9901 5.24045 17.1C5.24045 8.20993 12.4609 1 21.3716 1C30.2823 1 37.5027 8.20993 37.5027 17.1Z" fill="#5459D8" stroke="white" stroke-width="2"/>
<ellipse cx="4.80545" cy="3.00206" rx="4.80545" ry="3.00206" transform="matrix(0.790044 -0.61305 0.614443 0.788961 9.65028 10.092)" fill="white"/>
<path d="M57.3388 29.7C57.3388 38.5901 50.1184 45.8 41.2077 45.8C32.297 45.8 25.0765 38.5901 25.0765 29.7C25.0765 20.8099 32.297 13.6 41.2077 13.6C50.1184 13.6 57.3388 20.8099 57.3388 29.7Z" fill="#5459D8" stroke="white" stroke-width="2"/>
<ellipse cx="40.306" cy="21" rx="4.80874" ry="3" fill="white"/>
<path d="M33.2951 33.9C33.2951 42.7901 26.0746 50 17.1639 50C8.25324 50 1.03279 42.7901 1.03279 33.9C1.03279 25.0099 8.25324 17.8 17.1639 17.8C26.0746 17.8 33.2951 25.0099 33.2951 33.9Z" fill="#5459D8" stroke="white" stroke-width="2"/>
<ellipse cx="4.80083" cy="3.00495" rx="4.80083" ry="3.00495" transform="matrix(0.307572 0.951525 -0.951852 0.30656 27.4239 26.0437)" fill="white"/>
</svg>
